<?xml version="1.0"?>
<svg width="1600" height="1600" xmlns="http://www.w3.org/2000/svg" preserveAspectRatio="xMidYMid meet" version="1.0">
 <g class="layer">
  <title>Layer 1</title>
  <g fill="#fff" id="svg_1" transform="matrix(0.1 0 0 -0.1 0 0)">
   <path d="m7005,-4735c-121,-19 -218,-39 -328,-69c-111,-31 -288,-94 -304,-110c-6,-6 -23,-63 -37,-126c-14,-63 -55,-250 -91,-415c-117,-539 -275,-1235 -345,-1521c-46,-188 -46,-189 -22,-179c19,8 140,50 187,64c120,38 497,113 690,138c102,13 207,18 390,17c218,0 262,-2 345,-21c194,-43 321,-126 380,-247l29,-61l-2,1045c-3,1164 1,1095 -72,1226c-67,120 -171,195 -335,244c-97,28 -349,36 -485,15z" fill="#ffffff" id="svg_2"/>
   <path d="m8535,-4734c-151,-30 -248,-78 -332,-161c-57,-58 -86,-108 -117,-205c-20,-64 -21,-80 -23,-1115c-2,-906 0,-1045 12,-1013c20,54 68,120 110,152c58,45 182,97 279,118c187,40 583,34 876,-13c234,-38 532,-111 710,-173c24,-8 46,-13 48,-11c2,2 -6,36 -17,77c-36,130 -215,914 -376,1648c-90,412 -113,511 -116,515c-5,5 -155,64 -204,80c-60,20 -185,52 -320,80c-151,32 -419,43 -530,21z" fill="#ffffff" id="svg_3"/>
   <path d="m5725,-7700c-168,-43 -271,-97 -365,-190c-402,-399 -122,-1078 445,-1080c273,0 537,222 600,506c25,108 16,241 -21,351c-23,68 -26,86 -16,107c14,32 57,44 91,25c33,-18 80,-151 87,-247c3,-37 7,-77 10,-89l4,-23l1440,0l1440,0l4,23c3,12 7,52 10,89c7,96 54,229 87,247c34,19 77,7 91,-25c10,-21 7,-39 -16,-107c-37,-110 -46,-243 -21,-351c63,-283 327,-506 600,-506c291,1 544,196 615,476c56,217 -8,443 -170,604c-95,94 -199,148 -370,191c-72,18 -151,19 -2275,18c-2093,0 -2203,-1 -2270,-19zm185,-321c51,-16 140,-88 172,-139c15,-25 35,-73 43,-107c37,-144 -41,-305 -180,-374c-42,-20 -64,-24 -145,-24c-89,0 -99,2 -158,34c-167,91 -225,300 -129,463c43,73 136,141 218,158c48,10 124,5 179,-11zm4425,-14c141,-68 215,-199 194,-349c-21,-159 -144,-273 -306,-284c-199,-13 -354,130 -355,328c-1,121 57,223 164,288c96,57 206,63 303,17z" fill="#ffffff" id="svg_4"/>
   <path d="m6840,-8618c0,-10 12,-77 26,-148c15,-71 30,-145 33,-164l6,-35l1101,-3l1101,-2l27,163c14,90 26,173 26,185l0,22l-1160,0c-1116,0 -1160,-1 -1160,-18z" fill="#ffffff" id="svg_5"/>
   <path d="m6799,-9362c-1,-51 -3,-115 -5,-143c-1,-27 -7,-156 -13,-285c-6,-129 -15,-325 -20,-435c-6,-110 -17,-371 -26,-580c-8,-209 -17,-401 -19,-427l-3,-48l253,0l254,0l0,23c0,12 4,150 9,307c6,157 12,384 16,505c9,378 15,460 36,494c39,64 150,63 190,-3c18,-30 19,-58 19,-678l0,-648l195,0l195,0l0,635c0,680 0,675 50,720c15,14 36,20 70,20c34,0 55,-6 70,-20c50,-45 50,-40 50,-720l0,-635l195,0l195,0l0,648c0,620 1,648 19,678c40,66 151,67 190,3c21,-34 27,-118 36,-494c4,-126 10,-354 15,-505c6,-151 10,-287 10,-302l0,-28l254,0l253,0l-3,48c-2,26 -11,216 -19,422c-9,206 -20,472 -26,590c-18,389 -28,603 -35,778l-7,172l-1198,0l-1199,0l-1,-92z" fill="#ffffff" id="svg_6"/>
  </g>
 </g>
</svg>
