<svg id="Слой_1" xmlns="http://www.w3.org/2000/svg" x="0px" y="0px"
     viewBox="0 0 479 479" style="enable-background:new 0 0 479 479;" xml:space="preserve">
<style type="text/css">
	.st0{fill: #5967b2;}
</style>
  <path class="st0" d="M376.5,136.5c-2.7,1.8-3.3,5.5-1.4,8.2c48.5,69.3,36.8,164.1-26.9,219.6c-63.8,55.6-159.3,53.9-221.2-3.7
	l44.2-44.2H346c9.8,0,17.8-7.9,17.8-17.8v-118c0-9.8-7.9-17.8-17.8-17.8h-21.2l40-40.1c2.3-2.3,2.3-6.1,0-8.4l-0.1-0.1
	c-0.1-0.1-0.1-0.2-0.2-0.3c-64.7-64.4-167.8-69.2-238.2-10.9C56.2,161.3,41.6,263.5,92.9,339c1.2,1.8,3.2,2.8,5.3,2.7
	c2.1-0.1,4-1.4,5-3.3c0.9-1.9,0.7-4.2-0.5-5.9C55.5,262.8,68.1,168.8,132,114.1s158.6-52.8,220.2,4.4L308,162.8h-18.1L268.1,130
	c-1.1-1.6-3-2.7-5-2.7h-47.3c-2,0-3.8,1-4.9,2.7l-21.9,32.8h-55.9c-9.8,0-17.8,7.9-17.8,17.8v118.2c0,9.8,7.9,17.8,17.8,17.8h21.2
	l-40.1,40.1c-2.3,2.3-2.3,6.1,0,8.4c65,64.8,168.8,69.3,239.1,10.3s83.9-162,31.3-237.3C382.9,135.2,379.2,134.6,376.5,136.5z
	 M345.9,174.6c3.3,0,5.9,2.7,5.9,5.9v118.2c0,3.3-2.7,5.9-5.9,5.9H183l23.5-23.5c21.2,16.9,51.6,15.2,70.8-3.8
	c19.2-19.1,20.8-49.6,3.8-70.8l31.8-31.8L345.9,174.6L345.9,174.6z M198.2,239.6c0-15.7,8.8-30,22.8-37c14-7,30.8-5.5,43.3,3.9
	l-8.4,8.4c-11.7-7.8-27.2-6.2-37.1,3.7s-11.5,25.5-3.7,37.1l-8.4,8.4C201.1,257.2,198.2,248.5,198.2,239.6z M280.9,239.6
	c0.1,15.7-8.8,30-22.8,37c-14,7-30.8,5.5-43.3-3.9l8.4-8.4c11.7,7.8,27.2,6.2,37.1-3.7c9.9-9.9,11.5-25.5,3.7-37.1l8.4-8.4
	C278,222,280.9,230.7,280.9,239.6z M221.9,239.6c0-9.8,7.9-17.8,17.8-17.8c2.7,0,5.3,0.6,7.6,1.8l-23.5,23.5
	C222.5,244.9,221.9,242.3,221.9,239.6z M257.3,239.6c0,9.8-7.9,17.8-17.8,17.8c-2.7,0-5.3-0.6-7.6-1.8l23.5-23.5
	C256.7,234.3,257.3,237,257.3,239.6z M272.7,198.1c-21.2-16.9-51.6-15.2-70.8,3.8s-20.8,49.6-3.8,70.8l-31.8,31.8h-3.5V174.6h133.5
	L272.7,198.1z M219.1,139.2H260l15.8,23.6h-72.4L219.1,139.2z M133.3,304.6c-3.3,0-5.9-2.7-5.9-5.9V180.6c0-3.3,2.7-5.9,5.9-5.9H151
	v130L133.3,304.6L133.3,304.6z"/>
</svg>
